<?xml version="1.0" encoding="UTF-8"?><svg xmlns="http://www.w3.org/2000/svg" xmlns:xlink="http://www.w3.org/1999/xlink" viewBox="0 0 1200 800"><defs><style>.cls-1{fill:none;}.cls-2{clip-path:url(#clippath);}.cls-3{fill:#f9f03b;}.cls-4{fill:#f4ec77;}.cls-5{fill:#e4b561;}.cls-6{fill:#fff;}.cls-7{fill:#edce3a;}.cls-8{fill:#ecdf66;}.cls-9{fill:#699cf8;}.cls-10{fill:#80ad28;}.cls-11{fill:#7461d4;}.cls-12{fill:#98ad1e;}.cls-13{fill:#7d5500;}.cls-14{fill:#84a010;}.cls-15{fill:#8fd9dc;}.cls-16{fill:#72960f;}.cls-17{fill:#7192d8;}.cls-18{fill:#bdce39;}.cls-19{fill:#ce5045;}.cls-20{fill:#9baf27;}.cls-21{fill:#6e8a01;}.cls-22{fill:#629226;}.cls-23,.cls-24{fill:#613d00;}.cls-25{fill:#517a02;}.cls-26{clip-path:url(#clippath-1);}.cls-27{clip-path:url(#clippath-2);}.cls-24{mix-blend-mode:multiply;opacity:.3;}.cls-28{isolation:isolate;}</style><clipPath id="clippath"><rect class="cls-1" width="1200" height="800"/></clipPath><clipPath id="clippath-1"><rect class="cls-1" y="640.34" width="1200" height="159.66"/></clipPath><clipPath id="clippath-2"><rect class="cls-1" y="624.34" width="20" height="33.67"/></clipPath></defs><g class="cls-28"><g id="Calque_2"><g id="BACKGROUND"><rect class="cls-9" width="1200" height="800"/><g class="cls-2"><circle class="cls-6" cx="46.08" cy="456.64" r="114.66"/><circle class="cls-6" cx="174.71" cy="418.48" r="77.08"/><circle class="cls-6" cx="106.04" cy="329.99" r="35.2"/><circle class="cls-6" cx="141.25" cy="355.31" r="24.17"/><circle class="cls-6" cx="222.71" cy="335.99" r="99.99" transform="translate(-172.35 255.89) rotate(-45)"/><circle class="cls-6" cx="233.76" cy="473.56" r="99.99"/><circle class="cls-6" cx="280.71" cy="435.98" r="42" transform="translate(-226.07 326.18) rotate(-45)"/><circle class="cls-6" cx="331.7" cy="311.06" r="44.25" transform="translate(-73.16 104.01) rotate(-16.07)"/><circle class="cls-6" cx="270.71" cy="449.4" r="36.96"/><circle class="cls-6" cx="423.41" cy="463.1" r="154.11" transform="translate(-203.45 435.03) rotate(-45)"/><path class="cls-6" d="m416.69,283.49c0,6.24-5.06,11.29-11.29,11.29s-11.29-5.06-11.29-11.29,5.06-11.29,11.29-11.29,11.29,5.06,11.29,11.29Z"/><circle class="cls-6" cx="307.67" cy="272.19" r="15.04" transform="translate(-10.5 532.04) rotate(-80.74)"/><circle class="cls-6" cx="132.21" cy="257.16" r="15.04"/><circle class="cls-6" cx="119.19" cy="365.19" r="22.06"/><circle class="cls-6" cx="614.49" cy="400.48" r="82.69" transform="translate(-5.05 7.86) rotate(-.73)"/><circle class="cls-6" cx="526.12" cy="335.99" r="51.26" transform="translate(-83.48 470.43) rotate(-45)"/><path class="cls-6" d="m487.72,308.99c0,9.01-7.3,16.31-16.31,16.31s-16.31-7.3-16.31-16.31,7.3-16.31,16.31-16.31,16.31,7.3,16.31,16.31Z"/><circle class="cls-6" cx="889.67" cy="483.17" r="117.98" transform="translate(-81.07 770.61) rotate(-45)"/><circle class="cls-6" cx="704.74" cy="365.19" r="76.78" transform="translate(228.81 1000.42) rotate(-80.55)"/><circle class="cls-6" cx="734.72" cy="418.48" r="98.65" transform="translate(271.12 1125.6) rotate(-86.41)"/><circle class="cls-6" cx="826.79" cy="343.79" r="55.09" transform="translate(-61.24 229) rotate(-15.21)"/><path class="cls-6" d="m960.1,294.78c0,7.02-5.69,12.7-12.71,12.7s-12.7-5.69-12.7-12.7,5.69-12.7,12.7-12.7,12.71,5.69,12.71,12.7Z"/><circle class="cls-6" cx="998.04" cy="379.48" r="77.62"/><circle class="cls-6" cx="1112.06" cy="422.98" r="109.1" transform="translate(646.71 1517.99) rotate(-87.8)"/><circle class="cls-6" cx="1132.62" cy="486.35" r="109.1" transform="translate(-.82 1.91) rotate(-.1)"/><circle class="cls-6" cx="1186.39" cy="343.13" r="137.97" transform="translate(104.85 939.41) rotate(-45)"/><circle class="cls-6" cx="919.67" cy="387.25" r="66.91" transform="translate(324.57 1188.25) rotate(-76.22)"/><path class="cls-6" d="m1089.16,325.3c0,35.64-28.89,64.53-64.53,64.53s-64.53-28.89-64.53-64.53,28.89-64.53,64.53-64.53,64.53,28.89,64.53,64.53Z"/><circle class="cls-6" cx="934.69" cy="307.49" r="72"/><circle class="cls-6" cx="766.68" cy="310.9" r="25.09"/><circle class="cls-6" cx="609.12" cy="283.49" r="8.94"/><circle class="cls-6" cx="10.04" cy="301.49" r="70.5"/><path class="cls-6" d="m98.2,343.79c0,17.54-14.22,31.76-31.76,31.76s-31.76-14.22-31.76-31.76,14.22-31.76,31.76-31.76,31.76,14.22,31.76,31.76Z"/></g><path class="cls-19" d="m591.24,329.1c-117.99,0-213.64,95.65-213.64,213.64h427.28c0-117.99-95.65-213.64-213.64-213.64Z"/><path class="cls-5" d="m591.24,358c-102.03,0-184.74,82.71-184.74,184.74h369.48c0-102.03-82.71-184.74-184.74-184.74Z"/><path class="cls-8" d="m591.24,386.9c-86.07,0-155.84,69.77-155.84,155.84h311.69c0-86.07-69.77-155.84-155.85-155.84Z"/><path class="cls-18" d="m721.5,542.74c0-71.93-58.31-130.25-130.25-130.25s-130.25,58.32-130.25,130.25h260.5Z"/><path class="cls-15" d="m694.79,542.74c0-57.19-46.36-103.55-103.55-103.55s-103.55,46.36-103.55,103.55h207.1Z"/><path class="cls-17" d="m668.17,542.74c0-42.49-34.44-76.93-76.93-76.93s-76.93,34.44-76.93,76.93h153.85Z"/><path class="cls-11" d="m641.36,542.74c0-27.68-22.43-50.12-50.11-50.12s-50.11,22.44-50.11,50.12h100.23Z"/><path class="cls-14" d="m245.29,548.06c0,85.56-54.86,154.92-122.53,154.92S.23,633.62.23,548.06s54.86-154.92,122.53-154.92,122.53,69.36,122.53,154.92Z"/><path class="cls-20" d="m234.47,484.33c-4.07-11.39-9.2-22.05-15.23-31.77-10.52,21.63-27.46,44.5-53.8,52.69-41.11,12.78-116.11-13.98-151.52-28.38-2.2,5.36-4.15,10.9-5.85,16.6,21.37,6.4,51.29,15.94,93.22,30.16,73.13,24.81,112.42-5.46,133.19-39.29Z"/><path class="cls-20" d="m233.98,613.13c7.25-19.78,11.31-41.82,11.31-65.06,0-5.79-.26-11.5-.75-17.12-70.16,44.16-189.86,14.88-243.4-1.77-.6,6.19-.91,12.5-.91,18.89,0,7.84.47,15.55,1.36,23.08,81.79,56.6,169.27,55.21,232.39,41.98Z"/><path class="cls-20" d="m37.38,436.96c-3.55,4.36-6.89,9-10.01,13.87,27.08,10.78,70.6,24.79,112.79,24.21,37.83-.52,53.07-25.66,59.13-47.95-16.08-16.28-35.48-27.55-56.71-31.92.4,5.21.83,10.94,1.31,17.27,3.49,45.9-62.8,35.94-106.52,24.52Z"/><ellipse class="cls-16" cx="358.06" cy="505.12" rx="123.7" ry="156.4"/><path class="cls-10" d="m470.84,440.78c-4.11-11.5-9.29-22.26-15.38-32.08-10.62,21.84-27.72,44.92-54.32,53.19-41.5,12.9-117.22-14.12-152.97-28.65-2.22,5.41-4.19,11-5.9,16.76,21.57,6.46,51.78,16.09,94.1,30.45,73.83,25.05,113.49-5.51,134.46-39.67Z"/><path class="cls-10" d="m470.35,570.8c7.32-19.97,11.42-42.22,11.42-65.68,0-5.85-.26-11.61-.76-17.29-70.83,44.58-191.68,15.02-245.72-1.79-.6,6.25-.92,12.62-.92,19.08,0,7.92.47,15.7,1.37,23.3,82.57,57.14,170.89,55.74,234.61,42.38Z"/><path class="cls-10" d="m271.87,392.95c-3.58,4.41-6.96,9.08-10.1,14.01,27.33,10.88,71.28,25.02,113.87,24.44,38.2-.52,53.57-25.91,59.69-48.41-16.23-16.44-35.82-27.81-57.25-32.22.4,5.26.84,11.05,1.33,17.43,3.53,46.34-63.4,36.28-107.54,24.75Z"/><ellipse class="cls-16" cx="839.42" cy="505.12" rx="123.7" ry="156.4"/><path class="cls-10" d="m952.2,440.78c-4.11-11.5-9.29-22.26-15.38-32.08-10.62,21.84-27.72,44.92-54.32,53.19-41.5,12.9-117.22-14.12-152.97-28.65-2.22,5.41-4.19,11-5.9,16.76,21.57,6.46,51.78,16.09,94.11,30.45,73.83,25.05,113.49-5.51,134.46-39.67Z"/><path class="cls-10" d="m951.7,570.8c7.32-19.97,11.42-42.22,11.42-65.68,0-5.85-.26-11.61-.76-17.29-70.83,44.58-191.67,15.02-245.72-1.79-.6,6.25-.92,12.62-.92,19.08,0,7.92.47,15.7,1.37,23.3,82.57,57.14,170.89,55.74,234.61,42.38Z"/><path class="cls-10" d="m753.22,392.95c-3.59,4.41-6.96,9.08-10.1,14.01,27.33,10.88,71.28,25.02,113.87,24.44,38.2-.52,53.57-25.91,59.7-48.41-16.24-16.44-35.82-27.81-57.25-32.22.4,5.26.84,11.05,1.33,17.43,3.53,46.34-63.4,36.28-107.54,24.75Z"/><ellipse class="cls-14" cx="1075.89" cy="546.58" rx="123.7" ry="156.4"/><path class="cls-20" d="m1188.67,482.25c-4.11-11.5-9.29-22.26-15.38-32.08-10.62,21.84-27.72,44.92-54.32,53.19-41.5,12.9-117.22-14.12-152.97-28.65-2.22,5.41-4.19,11-5.91,16.76,21.57,6.46,51.78,16.09,94.1,30.45,73.83,25.05,113.49-5.51,134.46-39.67Z"/><path class="cls-20" d="m1188.18,612.27c7.32-19.97,11.42-42.22,11.42-65.68,0-5.84-.26-11.61-.76-17.29-70.83,44.58-191.68,15.02-245.72-1.79-.6,6.25-.92,12.62-.92,19.08,0,7.92.47,15.7,1.37,23.3,82.57,57.14,170.89,55.74,234.61,42.38Z"/><path class="cls-20" d="m989.7,434.42c-3.58,4.41-6.96,9.08-10.1,14,27.33,10.88,71.28,25.02,113.87,24.44,38.2-.52,53.57-25.91,59.7-48.41-16.24-16.44-35.82-27.81-57.25-32.22.4,5.26.84,11.05,1.33,17.43,3.53,46.34-63.4,36.28-107.54,24.75Z"/><path class="cls-6" d="m139.76,70.87c-1.07,0-2.1.14-3.08.39-.65-11.99-10.58-21.52-22.74-21.52-9.89,0-18.3,6.3-21.45,15.11-.81-.13-1.63-.2-2.48-.2-8.46,0-15.32,6.86-15.32,15.32s6.86,15.32,15.32,15.32h49.75c6.74,0,12.21-5.47,12.21-12.21s-5.47-12.21-12.21-12.21Z"/><path class="cls-6" d="m315.16,165.79c-1.07,0-2.1.14-3.09.39-.65-11.99-10.58-21.52-22.74-21.52-9.89,0-18.3,6.3-21.45,15.11-.81-.13-1.63-.2-2.48-.2-8.46,0-15.32,6.86-15.32,15.32s6.86,15.32,15.32,15.32h49.75c6.74,0,12.21-5.47,12.21-12.21s-5.47-12.21-12.21-12.21Z"/><path class="cls-6" d="m924.03,40.51c-1.07,0-2.1.14-3.09.39-.65-11.99-10.58-21.52-22.74-21.52-9.89,0-18.3,6.3-21.45,15.11-.81-.13-1.63-.2-2.48-.2-8.46,0-15.32,6.86-15.32,15.32s6.86,15.32,15.32,15.32h49.75c6.74,0,12.21-5.47,12.21-12.21s-5.47-12.21-12.21-12.21Z"/><path class="cls-6" d="m1088.03,175.51c-1.07,0-2.1.14-3.09.39-.65-11.99-10.58-21.52-22.74-21.52-9.89,0-18.3,6.3-21.45,15.11-.81-.13-1.63-.2-2.48-.2-8.46,0-15.32,6.86-15.32,15.32s6.86,15.32,15.32,15.32h49.75c6.74,0,12.21-5.47,12.21-12.21s-5.47-12.21-12.21-12.21Z"/><g class="cls-26"><rect class="cls-23" y="640.34" width="1200" height="159.66"/><rect class="cls-13" x="-186.14" y="699.31" width="330" height="20" transform="translate(-507.75 192.81) rotate(-45)"/><rect class="cls-13" x="-117.3" y="699.31" width="330" height="20" transform="translate(-487.59 241.48) rotate(-45)"/><rect class="cls-13" x="-48.46" y="699.31" width="330" height="20" transform="translate(-467.42 290.16) rotate(-45)"/><rect class="cls-13" x="20.39" y="699.31" width="330" height="20" transform="translate(-447.26 338.84) rotate(-45)"/><rect class="cls-13" x="89.23" y="699.31" width="330" height="20" transform="translate(-427.1 387.52) rotate(-45)"/><rect class="cls-13" x="158.07" y="699.31" width="330" height="20" transform="translate(-406.93 436.2) rotate(-45)"/><rect class="cls-13" x="226.91" y="699.31" width="330" height="20" transform="translate(-386.77 484.88) rotate(-45)"/><rect class="cls-13" x="295.75" y="699.31" width="330" height="20" transform="translate(-366.61 533.55) rotate(-45)"/><rect class="cls-13" x="364.6" y="699.31" width="330" height="20" transform="translate(-346.44 582.23) rotate(-45)"/><rect class="cls-13" x="433.44" y="699.31" width="330" height="20" transform="translate(-326.28 630.91) rotate(-45)"/><rect class="cls-13" x="502.28" y="699.31" width="330" height="20" transform="translate(-306.12 679.59) rotate(-45)"/><rect class="cls-13" x="571.12" y="699.31" width="330" height="20" transform="translate(-285.95 728.27) rotate(-45)"/><rect class="cls-13" x="639.96" y="699.31" width="330" height="20" transform="translate(-265.79 776.95) rotate(-45)"/><rect class="cls-13" x="708.8" y="699.31" width="330" height="20" transform="translate(-245.63 825.63) rotate(-45)"/><rect class="cls-13" x="777.65" y="699.31" width="330" height="20" transform="translate(-225.46 874.3) rotate(-45)"/><rect class="cls-13" x="846.49" y="699.31" width="330" height="20" transform="translate(-205.3 922.98) rotate(-45)"/><rect class="cls-13" x="915.33" y="699.31" width="330" height="20" transform="translate(-185.14 971.66) rotate(-45)"/><rect class="cls-13" x="984.17" y="699.31" width="330" height="20" transform="translate(-164.97 1020.34) rotate(-45)"/><rect class="cls-13" x="1053.01" y="699.31" width="330" height="20" transform="translate(-144.81 1069.02) rotate(-45)"/><rect class="cls-13" x="1121.86" y="699.31" width="330" height="20" transform="translate(-124.65 1117.7) rotate(-45)"/></g><rect class="cls-24" y="640.34" width="1200" height="40"/><rect class="cls-21" y="538.34" width="1200" height="102"/><rect class="cls-25" y="614.34" width="1200" height="26"/><rect class="cls-12" y="609.67" width="1200" height="4.67"/><path class="cls-14" d="m46.08,552.04c0,3.56-8.07,6.45-18.02,6.45s-18.02-2.89-18.02-6.45,8.07-6.45,18.02-6.45,18.02,2.89,18.02,6.45Z"/><path class="cls-14" d="m94.08,601.37c0,3.56-8.07,6.45-18.02,6.45s-18.02-2.89-18.02-6.45,8.07-6.45,18.02-6.45,18.02,2.89,18.02,6.45Z"/><path class="cls-14" d="m142.08,570.04c0,3.56-8.07,6.45-18.02,6.45s-18.02-2.89-18.02-6.45,8.07-6.45,18.02-6.45,18.02,2.89,18.02,6.45Z"/><path class="cls-14" d="m210.74,552.04c0,3.56-8.07,6.45-18.02,6.45s-18.02-2.89-18.02-6.45,8.07-6.45,18.02-6.45,18.02,2.89,18.02,6.45Z"/><path class="cls-14" d="m258.74,601.37c0,3.56-8.07,6.45-18.02,6.45s-18.02-2.89-18.02-6.45,8.07-6.45,18.02-6.45,18.02,2.89,18.02,6.45Z"/><path class="cls-14" d="m306.74,570.04c0,3.56-8.07,6.45-18.02,6.45s-18.02-2.89-18.02-6.45,8.07-6.45,18.02-6.45,18.02,2.89,18.02,6.45Z"/><path class="cls-14" d="m375.41,552.04c0,3.56-8.07,6.45-18.02,6.45s-18.02-2.89-18.02-6.45,8.07-6.45,18.02-6.45,18.02,2.89,18.02,6.45Z"/><path class="cls-14" d="m423.41,601.37c0,3.56-8.07,6.45-18.02,6.45s-18.02-2.89-18.02-6.45,8.07-6.45,18.02-6.45,18.02,2.89,18.02,6.45Z"/><path class="cls-14" d="m471.41,570.04c0,3.56-8.07,6.45-18.02,6.45s-18.02-2.89-18.02-6.45,8.07-6.45,18.02-6.45,18.02,2.89,18.02,6.45Z"/><path class="cls-14" d="m540.08,552.04c0,3.56-8.07,6.45-18.02,6.45s-18.02-2.89-18.02-6.45,8.07-6.45,18.02-6.45,18.02,2.89,18.02,6.45Z"/><path class="cls-14" d="m588.08,601.37c0,3.56-8.07,6.45-18.02,6.45s-18.02-2.89-18.02-6.45,8.07-6.45,18.02-6.45,18.02,2.89,18.02,6.45Z"/><path class="cls-14" d="m636.08,570.04c0,3.56-8.07,6.45-18.02,6.45s-18.02-2.89-18.02-6.45,8.07-6.45,18.02-6.45,18.02,2.89,18.02,6.45Z"/><path class="cls-14" d="m704.74,552.04c0,3.56-8.07,6.45-18.02,6.45s-18.02-2.89-18.02-6.45,8.07-6.45,18.02-6.45,18.02,2.89,18.02,6.45Z"/><path class="cls-14" d="m752.74,601.37c0,3.56-8.07,6.45-18.02,6.45s-18.02-2.89-18.02-6.45,8.07-6.45,18.02-6.45,18.02,2.89,18.02,6.45Z"/><path class="cls-14" d="m800.74,570.04c0,3.56-8.07,6.45-18.02,6.45s-18.02-2.89-18.02-6.45,8.07-6.45,18.02-6.45,18.02,2.89,18.02,6.45Z"/><path class="cls-14" d="m869.41,552.04c0,3.56-8.07,6.45-18.02,6.45s-18.02-2.89-18.02-6.45,8.07-6.45,18.02-6.45,18.02,2.89,18.02,6.45Z"/><path class="cls-14" d="m917.41,601.37c0,3.56-8.07,6.45-18.02,6.45s-18.02-2.89-18.02-6.45,8.07-6.45,18.02-6.45,18.02,2.89,18.02,6.45Z"/><path class="cls-14" d="m965.41,570.04c0,3.56-8.07,6.45-18.02,6.45s-18.02-2.89-18.02-6.45,8.07-6.45,18.02-6.45,18.02,2.89,18.02,6.45Z"/><path class="cls-14" d="m1034.07,552.04c0,3.56-8.07,6.45-18.02,6.45s-18.02-2.89-18.02-6.45,8.07-6.45,18.02-6.45,18.02,2.89,18.02,6.45Z"/><path class="cls-14" d="m1082.07,601.37c0,3.56-8.07,6.45-18.02,6.45s-18.02-2.89-18.02-6.45,8.07-6.45,18.02-6.45,18.02,2.89,18.02,6.45Z"/><path class="cls-14" d="m1130.07,570.04c0,3.56-8.07,6.45-18.02,6.45s-18.02-2.89-18.02-6.45,8.07-6.45,18.02-6.45,18.02,2.89,18.02,6.45Z"/><path class="cls-14" d="m1194.74,552.04c0,3.56-8.07,6.45-18.02,6.45s-18.02-2.89-18.02-6.45,8.07-6.45,18.02-6.45,18.02,2.89,18.02,6.45Z"/><circle class="cls-25" cx="28.67" cy="640.34" r="14.34"/><circle class="cls-25" cx="57.35" cy="640.34" r="14.34"/><circle class="cls-25" cx="86.02" cy="640.34" r="14.34"/><circle class="cls-25" cx="114.7" cy="640.34" r="14.34"/><circle class="cls-25" cx="143.37" cy="640.34" r="14.34"/><circle class="cls-25" cx="172.04" cy="640.34" r="14.34"/><circle class="cls-25" cx="200.72" cy="640.34" r="14.34"/><circle class="cls-25" cx="229.39" cy="640.34" r="14.34"/><circle class="cls-25" cx="258.06" cy="640.34" r="14.34"/><circle class="cls-25" cx="286.74" cy="640.34" r="14.34"/><circle class="cls-25" cx="315.41" cy="640.34" r="14.34"/><circle class="cls-25" cx="344.09" cy="640.34" r="14.34"/><circle class="cls-25" cx="372.76" cy="640.34" r="14.34"/><circle class="cls-25" cx="401.43" cy="640.34" r="14.34"/><circle class="cls-25" cx="430.11" cy="640.34" r="14.34"/><circle class="cls-25" cx="458.78" cy="640.34" r="14.34"/><circle class="cls-25" cx="487.46" cy="640.34" r="14.34"/><circle class="cls-25" cx="516.13" cy="640.34" r="14.34"/><circle class="cls-25" cx="544.8" cy="640.34" r="14.34"/><circle class="cls-25" cx="573.48" cy="640.34" r="14.34"/><circle class="cls-25" cx="602.15" cy="640.34" r="14.34"/><circle class="cls-25" cx="630.82" cy="640.34" r="14.34"/><circle class="cls-25" cx="659.5" cy="640.34" r="14.34"/><circle class="cls-25" cx="688.17" cy="640.34" r="14.34"/><circle class="cls-25" cx="716.85" cy="640.34" r="14.34"/><circle class="cls-25" cx="745.52" cy="640.34" r="14.34"/><circle class="cls-25" cx="774.19" cy="640.34" r="14.34"/><circle class="cls-25" cx="802.87" cy="640.34" r="14.34"/><circle class="cls-25" cx="831.54" cy="640.34" r="14.34"/><circle class="cls-25" cx="860.21" cy="640.34" r="14.34"/><circle class="cls-25" cx="888.89" cy="640.34" r="14.34"/><circle class="cls-25" cx="917.56" cy="640.34" r="14.34"/><circle class="cls-25" cx="946.24" cy="640.34" r="14.34"/><circle class="cls-25" cx="974.91" cy="640.34" r="14.34"/><circle class="cls-25" cx="1003.58" cy="640.34" r="14.34"/><circle class="cls-25" cx="1032.26" cy="640.34" r="14.34"/><circle class="cls-25" cx="1060.93" cy="640.34" r="14.34"/><circle class="cls-25" cx="1089.61" cy="640.34" r="14.34"/><circle class="cls-25" cx="1118.28" cy="640.34" r="14.34"/><circle class="cls-25" cx="1146.95" cy="640.34" r="14.34"/><circle class="cls-25" cx="1175.63" cy="640.34" r="14.34"/><path class="cls-25" d="m1200,626.66c-5.82,1.83-10.04,7.26-10.04,13.68s4.22,11.85,10.04,13.68v-27.36Z"/><g class="cls-27"><circle class="cls-25" cx="0" cy="640.34" r="14.34"/></g><path class="cls-6" d="m649.32,124.13c-2.36,0-4.65.31-6.83.87-1.45-26.57-23.44-47.67-50.38-47.67-21.9,0-40.55,13.96-47.52,33.47-1.79-.29-3.62-.45-5.49-.45-18.74,0-33.94,15.2-33.94,33.94s15.2,33.94,33.94,33.94h110.22c14.94,0,27.05-12.11,27.05-27.05s-12.11-27.06-27.05-27.06Z"/></g><g id="Calque_5"><path class="cls-3" d="m851.49,138.57c0,36.95-29.95,66.9-66.9,66.9s-66.89-29.95-66.89-66.9,29.95-66.9,66.89-66.9,66.9,29.95,66.9,66.9Z"/><path class="cls-4" d="m825.4,114.4c0,15-12.16,27.17-27.17,27.17s-27.17-12.16-27.17-27.17,12.16-27.17,27.17-27.17,27.17,12.16,27.17,27.17Z"/><path class="cls-22" d="m930.7,528.31v-11.45h1.97v16.79c2.63-4.06,6.59-2.47,6.59-2.47-1.93,3.88-5.11,4.18-6.59,4.09v7.86h-1.97v-13.52c-5.48,1.33-7.07-3.15-7.07-3.15,3.74-.98,5.98.65,7.07,1.85Z"/><path class="cls-6" d="m927.16,512.94s-6.73-2.84-4.35-6.06c2.38-3.22,6.68,2.64,6.68,2.64,0,0-1.55-6.97,2.38-6.72,4.25.27,1.71,7.4,1.71,7.4,0,0,4.63-6.13,7.25-2.62,1.63,2.19-1.87,4.6-4.18,5.37,0,0,7.43,1.52,5.68,5.01-1.86,3.7-7.68-1.5-7.68-1.5,0,0,5.29,6.2,1.38,7.75-3.71,1.46-4.41-6.44-4.41-6.44,0,0-.45,7.86-4.29,6.6-5.04-1.64,1.38-7.94,1.38-7.94,0,0-7.17,4.08-7.81-.32-.54-3.67,6.27-3.17,6.27-3.17Z"/><path class="cls-7" d="m935.49,513.62c.04,2.06-1.59,3.76-3.65,3.81-2.06.04-3.76-1.59-3.81-3.65-.04-2.06,1.59-3.76,3.65-3.81,2.06-.04,3.76,1.59,3.81,3.65Z"/><path class="cls-22" d="m1064.41,575.5v-11.45h1.97v16.79c2.63-4.06,6.59-2.47,6.59-2.47-1.93,3.88-5.11,4.18-6.59,4.09v7.86h-1.97v-13.52c-5.48,1.33-7.07-3.15-7.07-3.15,3.74-.98,5.98.65,7.07,1.85Z"/><path class="cls-6" d="m1060.87,560.13s-6.73-2.84-4.35-6.06c2.38-3.22,6.68,2.64,6.68,2.64,0,0-1.55-6.97,2.38-6.72,4.25.27,1.71,7.4,1.71,7.4,0,0,4.63-6.13,7.25-2.62,1.63,2.19-1.87,4.6-4.18,5.37,0,0,7.43,1.52,5.68,5.01-1.86,3.7-7.68-1.5-7.68-1.5,0,0,5.29,6.2,1.38,7.75-3.71,1.46-4.41-6.44-4.41-6.44,0,0-.45,7.86-4.29,6.6-5.04-1.64,1.38-7.94,1.38-7.94,0,0-7.17,4.08-7.81-.32-.54-3.67,6.27-3.17,6.27-3.17Z"/><path class="cls-7" d="m1069.2,560.81c.04,2.06-1.59,3.76-3.65,3.81-2.06.04-3.76-1.59-3.81-3.65-.04-2.06,1.59-3.76,3.65-3.81,2.06-.04,3.76,1.59,3.81,3.65Z"/></g></g></g></svg>